<svg width="80" height="80" viewBox="0 0 80 80" fill="none" xmlns="http://www.w3.org/2000/svg">
<g filter="url(#filter0_d_1407_11283)">
<path fill-rule="evenodd" clip-rule="evenodd" d="M36.4227 24.4476C38.0657 22.9307 40.2641 22 42.6827 22C44.982 22 47.0827 22.8416 48.6959 24.2276C48.8006 24.224 48.9056 24.2222 49.011 24.2222C52.9112 24.2222 56.2382 26.6767 57.5314 30.1253C61.267 31.1997 63.9999 34.6426 63.9999 38.7238V42.5587C63.9999 48.886 61.2483 54.9006 56.461 59.0378C49.3176 65.211 39.0103 66.079 30.9352 61.1873L28.9648 59.9938C26.0577 58.2327 23.6604 55.7437 22.0097 52.7725L20.6868 50.3912C18.2614 46.0255 18.96 40.5894 22.4103 36.9788L22.7119 36.6632C23.9453 35.3725 25.3961 34.5376 26.9078 34.1052V33.7162C26.9078 28.5955 31.0589 24.4444 36.1796 24.4444C36.2608 24.4444 36.3419 24.4455 36.4227 24.4476ZM38.0558 28.7881C38.9332 27.1298 40.676 26 42.6827 26C44.5962 26 46.2696 27.0272 47.1818 28.5603C47.7496 28.3419 48.3663 28.2222 49.011 28.2222C50.9925 28.2222 52.71 29.353 53.5532 31.0045C53.9079 31.699 54.1079 32.4857 54.1079 33.3191V33.8682C54.4141 33.8088 54.7303 33.7778 55.0539 33.7778C55.3774 33.7778 55.6937 33.8088 55.9999 33.8682C58.279 34.3096 59.9999 36.3157 59.9999 38.7238V42.5587C59.9999 47.724 57.7537 52.6339 53.8456 56.0113C48.0141 61.0508 39.5998 61.7594 33.0076 57.7661L31.0373 56.5725C28.7255 55.1721 26.819 53.1927 25.5064 50.8299L24.1834 48.4486C22.609 45.6147 23.0625 42.0861 25.3022 39.7423L25.6038 39.4268C26.3267 38.6702 27.1685 38.1862 28.0447 37.9408C28.9945 37.6748 29.9847 37.6892 30.9078 37.9408V33.7162C30.9078 30.8047 33.2681 28.4444 36.1796 28.4444C36.8404 28.4444 37.4729 28.566 38.0558 28.7881Z" fill="white"/>
</g>
<path fill-rule="evenodd" clip-rule="evenodd" d="M38.0557 28.7881C38.9332 27.1298 40.676 26 42.6827 26C44.5961 26 46.2696 27.0272 47.1817 28.5603C47.7495 28.3419 48.3662 28.2222 49.0109 28.2222C51.8259 28.2222 54.1078 30.5042 54.1078 33.3191V33.8682C54.414 33.8088 54.7303 33.7778 55.0538 33.7778C57.7854 33.7778 59.9998 35.9922 59.9998 38.7238V42.5587C59.9998 47.724 57.7536 52.6339 53.8455 56.0113C48.014 61.0508 39.5997 61.7594 33.0076 57.7661L31.0372 56.5725C28.7254 55.1721 26.8189 53.1927 25.5063 50.8299L24.1833 48.4486C22.609 45.6147 23.0624 42.0861 25.3021 39.7423L25.6037 39.4268C27.1103 37.8502 29.1331 37.457 30.9077 37.9408V33.7162C30.9077 30.8047 33.268 28.4444 36.1795 28.4444C36.8403 28.4444 37.4728 28.566 38.0557 28.7881ZM41.4512 38H37.4512V33.7162C37.4512 33.0138 36.8819 32.4444 36.1795 32.4444C35.4771 32.4444 34.9077 33.0138 34.9077 33.7162V44.4444H30.9077V43.1575C30.9077 41.8949 29.3679 41.2774 28.4956 42.1903L28.194 42.5058C27.1649 43.5827 26.9566 45.204 27.68 46.506L29.0029 48.8873C29.9776 50.6417 31.3931 52.1115 33.1097 53.1513L35.08 54.3449C40.1891 57.4398 46.7105 56.8906 51.23 52.9849C54.2589 50.3673 55.9998 46.5619 55.9998 42.5587V38.7238C55.9998 38.2013 55.5763 37.7778 55.0538 37.7778C54.5313 37.7778 54.1078 38.2013 54.1078 38.7238V40H50.1078V33.3191C50.1078 32.7133 49.6167 32.2222 49.0109 32.2222C48.4052 32.2222 47.9141 32.7133 47.9141 33.3191V38H43.9141V31.2314C43.9141 30.5513 43.3628 30 42.6827 30C42.0026 30 41.4512 30.5513 41.4512 31.2314V38Z" fill="#e8560a"/>
<path d="M37.4512 38H41.4512V31.2314C41.4512 30.5513 42.0026 30 42.6827 30C43.3628 30 43.9141 30.5513 43.9141 31.2314V38H47.9141V33.3191C47.9141 32.7133 48.4052 32.2222 49.0109 32.2222C49.6167 32.2222 50.1078 32.7133 50.1078 33.3191V40H54.1078V38.7238C54.1078 38.2013 54.5313 37.7778 55.0538 37.7778C55.5763 37.7778 55.9998 38.2013 55.9998 38.7238V42.5587C55.9998 46.5619 54.2589 50.3673 51.23 52.9849C46.7105 56.8906 40.1891 57.4398 35.08 54.3449L33.1097 53.1513C31.3931 52.1115 29.9776 50.6417 29.0029 48.8873L27.68 46.506C26.9566 45.204 27.1649 43.5827 28.194 42.5058L28.4956 42.1903C29.3679 41.2774 30.9077 41.8949 30.9077 43.1575V44.4444H34.9077V33.7162C34.9077 33.0138 35.4771 32.4444 36.1795 32.4444C36.8819 32.4444 37.4512 33.0138 37.4512 33.7162V38Z" fill="white"/>
<defs>
<filter id="filter0_d_1407_11283" x="11.252" y="18" width="56.748" height="54.3389" filterUnits="userSpaceOnUse" color-interpolation-filters="sRGB">
<feFlood flood-opacity="0" result="BackgroundImageFix"/>
<feColorMatrix in="SourceAlpha" type="matrix" values="0 0 0 0 0 0 0 0 0 0 0 0 0 0 0 0 0 0 127 0" result="hardAlpha"/>
<feOffset dx="-2" dy="2"/>
<feGaussianBlur stdDeviation="3"/>
<feComposite in2="hardAlpha" operator="out"/>
<feColorMatrix type="matrix" values="0 0 0 0 0 0 0 0 0 0 0 0 0 0 0 0 0 0 0.15 0"/>
<feBlend mode="normal" in2="BackgroundImageFix" result="effect1_dropShadow_1407_11283"/>
<feBlend mode="normal" in="SourceGraphic" in2="effect1_dropShadow_1407_11283" result="shape"/>
</filter>
</defs>
</svg>
