<svg width="24" height="24" viewBox="0 0 24 24" fill="none" xmlns="http://www.w3.org/2000/svg">
<path fill-rule="evenodd" clip-rule="evenodd" d="M3.31421 7.04767C6.07768 2.27263 12.2761 0.600455 17.1589 3.26885C19.5824 4.59324 21.2405 6.74529 21.9584 9.16569C22.1155 9.69517 21.8136 10.2517 21.2841 10.4088C20.7546 10.5658 20.1981 10.2639 20.041 9.73441C19.4706 7.81125 18.1513 6.09034 16.1998 5.02388C12.2457 2.863 7.25147 4.23726 5.04522 8.04947C2.84907 11.8442 4.22215 16.6652 8.16042 18.8174C11.5413 20.665 15.6826 19.9282 18.1914 17.2927H15.9729C15.4206 17.2927 14.9729 16.845 14.9729 16.2927C14.9729 15.7404 15.4206 15.2927 15.9729 15.2927H20.1805C20.4457 15.2927 20.7001 15.3981 20.8876 15.5856C21.0752 15.7732 21.1805 16.0275 21.1805 16.2927V20.9997C21.1805 21.552 20.7328 21.9997 20.1805 21.9997C19.6282 21.9997 19.1805 21.552 19.1805 20.9997V19.1258C16.0248 22.0402 11.177 22.7451 7.20133 20.5725C2.3026 17.8954 0.540634 11.8402 3.31421 7.04767Z" fill="#e8560a"/>
</svg>
