<svg width="640" height="745" viewBox="0 0 640 745" fill="none" xmlns="http://www.w3.org/2000/svg">
<path d="M79.5784 129.278C123.079 28.7856 229.487 -3.4087 324.862 36.7744C362.44 41.324 402.031 54.5634 434.228 75.708C478.863 105.022 513.448 154.319 522.33 208.707C528.808 203.626 536.267 197.932 542.792 193.58C543.364 193.185 543.995 192.759 544.522 192.403L546.153 191.298C546.666 190.946 547.148 190.611 547.594 190.292C547.992 190.007 548.267 189.8 548.439 189.666C556.044 182.333 565.475 178.198 575.612 178.17C585.536 178.142 594.186 182.041 600.707 187.176C613.116 196.946 621.862 214.521 618.512 232.724L618.511 232.733C615.518 248.95 603.87 256.526 598.959 260.045C596.966 261.473 595.691 262.403 594.53 263.403C586.012 270.975 575.068 278.665 566.933 284.358L530.833 311.754L530.827 311.759L530.822 311.763C529.824 312.518 528.688 313.358 527.537 314.202L527.536 314.203C527.175 314.469 526.803 314.738 526.428 315.013C532.462 332.791 533.169 352.092 528.234 370.48L528.235 370.481C525.275 381.589 520.348 392.028 513.732 401.326C534.751 441.302 547.105 484.157 533.571 534.187L533.572 534.188C520.338 583.133 485.1 622.275 449.262 650.74C442.528 656.089 435.682 660.907 429.369 665.354H429.368C425.1 668.362 421.067 671.207 417.116 674.144C415.672 675.409 414.046 677.173 411.488 680.038L411.471 680.059L411.391 680.146C410.017 681.686 408.295 683.621 406.506 685.453L406.502 685.457C398.554 693.595 388.854 700.808 379.376 706.168L379.37 706.172C332.008 732.932 274.709 729.751 230.798 697.307V697.306L229.629 696.442C225.469 693.366 221.516 690.453 217.822 687.99C214.076 686.092 210.331 684.226 206.516 682.328L206.487 682.313L206.456 682.299C198.852 678.515 190.972 674.596 183.012 670.335C138.608 646.57 88.3109 612.74 60.2122 564.126C40.7662 530.482 34.1192 486.825 45.1252 448.679C47.7537 439.567 53.0445 425.462 58.2375 413.068C28.4156 392.906 17.4738 357.842 20.467 325.613C21.6852 312.497 26.3673 297.461 34.8616 284.922C41.8842 274.555 52.4903 264.635 66.8821 260.492C66.8254 257.527 66.8254 254.63 66.8831 251.949C63.8724 242.881 63.3788 233.759 62.9836 228.185V228.181L62.9827 228.167L62.9817 228.156L62.9807 228.145C60.633 194.388 66.301 160.556 79.5227 129.408L79.55 129.344L79.5784 129.278Z" fill="white" stroke="white" stroke-width="40"/>
<path d="M87.0101 248.623C84.0031 241.88 83.4505 234.063 82.9326 226.757C80.8036 196.147 85.9432 165.468 97.9325 137.223C136.863 47.2887 232.287 18.0905 319.67 56.3069C355.381 60.1977 393.14 72.6515 423.249 92.4251C471.856 124.348 506.715 182.231 504.455 241.319C503.279 246.011 504.126 252.664 503.517 258.104C502.682 267.672 501.323 277.187 499.446 286.606C497.99 291.479 494.785 298.018 498.014 302.223C498.88 303.614 501.323 307.34 501.774 308.643C511.48 325.875 514.045 346.23 508.909 365.332C505.521 378.045 498.88 389.653 489.636 399.019C513.43 440.493 527.188 481.2 514.265 528.969C502.621 572.033 471.095 607.858 436.823 635.079C426.306 643.434 415.31 650.527 404.607 658.522C400.163 662.245 396.203 667.376 392.194 671.483C385.695 678.138 377.539 684.231 369.532 688.759C328.969 711.678 280.185 708.929 242.684 681.221C237.974 677.741 232.816 673.89 227.907 670.679C216.011 664.628 204.277 659.034 192.45 652.702C148.819 629.351 102.722 597.706 77.528 554.117C60.5971 524.825 54.9543 486.757 64.3413 454.223C68.0222 441.462 77.9679 416.594 84.0872 404.351C82.007 403.053 78.3676 401.64 75.9371 400.372C48.8186 386.204 37.6536 356.834 40.3815 327.463C42.2685 307.145 55.1919 280.543 78.5918 278.583C81.547 278.336 85.5045 278.876 88.0824 278.31C86.9723 269.953 86.5756 257.018 87.0101 248.623Z" fill="#6B2D09"/>
<path d="M87.0101 248.623C84.0032 241.88 83.4505 234.063 82.9326 226.757C80.8037 196.147 85.9432 165.468 97.9326 137.223C136.863 47.2887 232.287 18.0905 319.67 56.3069C318.712 61.8309 318.49 61.7468 313.557 64.4195C372.659 73.2067 424.481 91.1912 462.107 140.886C492.251 180.699 500.129 223.532 492.896 272.436C491.763 279.65 490.453 286.833 488.96 293.98C487.626 246.223 483.306 195.175 446.337 160.015C421.686 136.571 391.919 133.467 360.965 144.834C331.449 125.687 287.55 113.239 252.358 120.321C227.892 125.245 199.609 143.751 185.636 164.647C174.104 181.892 176.345 200.318 169.065 218.831C164.462 230.536 157.787 241.408 151.694 252.442C145.512 263.638 141.201 272.967 136.643 284.888C123.702 284.574 110.758 284.378 97.8126 284.3L97.1746 283.532C94.4912 282.127 90.2126 280.206 88.0825 278.31C86.9723 269.953 86.5757 257.018 87.0101 248.623Z" fill="#B0531D"/>
<path d="M87.0101 248.623C84.0032 241.88 83.4505 234.063 82.9326 226.757C80.8037 196.147 85.9432 165.468 97.9326 137.223C136.863 47.2887 232.287 18.0905 319.67 56.3069C318.712 61.8309 318.49 61.7468 313.557 64.4195C301.146 64.077 288.554 66.4591 276.521 69.3963C235.225 79.4278 197.311 100.188 166.612 129.578C140.068 154.723 121.022 182.374 106.434 215.797C103.411 222.722 97.8491 235.27 96.3252 242.62C95.2906 247.209 91.5988 249.552 87.0101 248.623Z" fill="#313F15"/>
<path d="M237.398 49.41C252.42 48.5587 278.568 51.6513 292.651 57.004C285.744 57.9303 276.743 59.8284 269.981 61.567C214.306 76.437 165.264 109.633 130.768 155.798C122.546 166.653 116.424 176.792 109.511 188.468C103.034 200.976 97.9429 212.49 92.3189 225.352C91.9399 223.167 91.681 220.962 91.5433 218.748C89.2109 176.03 106.236 126.184 135.498 95.2106C164.482 64.531 196.288 51.6049 237.398 49.41Z" fill="#5A6B2B"/>
<path d="M87.01 248.623C91.5987 249.552 95.2905 247.209 96.3251 242.62C95.4831 254.827 96.5658 271.002 97.1745 283.532C94.4911 282.127 90.2125 280.206 88.0824 278.31C86.9722 269.953 86.5756 257.018 87.01 248.623Z" fill="#6B2D09"/>
<path d="M88.0824 278.31C90.2126 280.206 94.4911 282.127 97.1745 283.532L97.8125 284.3C107.396 292.139 101.543 289.997 101.431 299.97C104.58 311.553 105.269 321.687 104.81 333.725C104.846 339.216 103.615 348.722 101.972 353.999C98.8703 368.957 93.9519 381.71 87.6456 395.656C86.4922 398.568 85.3058 401.469 84.0872 404.351C82.007 403.053 78.3676 401.64 75.9371 400.372C48.8186 386.204 37.6536 356.834 40.3815 327.463C42.2685 307.145 55.1919 280.543 78.5918 278.583C81.547 278.336 85.5045 278.876 88.0824 278.31Z" fill="#F9C8A5"/>
<path d="M88.0824 278.31C90.2126 280.206 94.4911 282.127 97.1745 283.532L97.8125 284.3C107.396 292.139 101.543 289.997 101.431 299.97C80.828 270.146 53.4542 298.453 49.9622 324.16C45.6112 356.19 57.0107 382.723 87.6456 395.656C86.4922 398.568 85.3058 401.469 84.0872 404.351C82.007 403.053 78.3676 401.64 75.9371 400.372C48.8186 386.204 37.6536 356.834 40.3815 327.463C42.2685 307.145 55.1919 280.543 78.5918 278.583C81.547 278.336 85.5045 278.876 88.0824 278.31Z" fill="#935A3B"/>
<path d="M90.3905 326.024C85.8652 319.678 78.1209 311.646 69.7264 316.624C66.636 318.457 64.3273 322.257 61.2083 323.528C59.8379 320.06 65.4911 312.345 68.6814 310.656C72.8917 308.427 78.1867 307.588 82.7638 308.94C94.8324 312.503 99.2377 323.867 104.81 333.725C104.846 339.216 103.615 348.722 101.972 353.999C100.913 349.941 98.289 334.045 92.0588 335.11C80.8055 337.033 85.1029 361.31 81.6701 365.172C80.34 364.456 78.8837 361.097 78.4706 359.605C74.5326 345.371 75.3247 331.828 90.3905 326.024Z" fill="#935A3B"/>
<path d="M107.931 293.108C116.435 293.059 124.939 293.067 133.444 293.129C128.179 311.134 121.894 333.187 128.572 351.837C134.465 368.297 148.771 370.119 162.863 376.285C159.81 378.761 156.981 381.501 154.408 384.474C139.567 401.579 132.822 420.268 134.423 442.931C136.01 438.178 137.05 433.053 138.843 428.154C146.699 406.667 155.012 394.809 172.211 380.481C203.16 401.097 181.931 452.443 204.236 486.977C203.687 487.909 203.174 488.86 202.698 489.835C201.246 492.796 198.136 498.5 199.153 501.474C202.221 502.363 206.644 498.646 209.459 497.007C213.24 494.825 217.186 492.936 221.263 491.37C232.406 487.025 240.321 485.636 252.17 486.379C242.082 499.865 230.982 521.534 232.916 538.853C235.6 562.874 256.954 572.1 279.216 569.571C301.013 567.03 320.903 555.915 334.502 538.688C341.432 542.454 359.225 542.277 366.507 539.48C375.523 553.849 397.294 566.305 413.979 557.512C419.643 554.575 423.843 549.431 425.587 543.289C428.936 531.65 424.978 520.742 419.424 510.7C439.119 502.717 450.627 509.584 466.594 521.534C460.479 501.218 459.831 496.757 448.417 479.164C448.548 469.908 448.687 457.33 452.767 449.061C456.69 441.103 461.909 439.281 469.556 436.642C485.84 452.833 484.019 465.904 488.333 486.495L489.112 486.708C491.324 483.259 490.843 468.47 490.41 463.814C489.283 451.651 485.914 441.992 477.719 432.925L478.002 432.706C485.725 426.606 486.048 423.035 487.15 413.583C505.844 446.904 515.008 480.657 507.343 518.609C497.161 568.992 455.077 612.995 413.727 640.643C417.126 631.843 423.823 605.043 420.348 596.883L419.794 597.072C418.523 599.638 416.677 607.206 416.054 610.168C402.351 675.529 332.283 712.896 270.634 686.87C257.674 681.398 244.544 662.434 239.444 649.351C236.674 642.239 234.649 634.524 232.017 627.169C230.089 644.183 234.456 654.798 241.558 669.545C226.658 655.572 220.66 640.917 216.522 621.277C215.95 618.559 215.508 610.466 213.902 608.864C208.562 621.77 215.592 644.853 220.938 657.199C190.204 641.813 146.499 618.236 122.366 593.678C107.3 578.346 100.216 544.209 101.645 523.71C102.218 515.495 104.134 506.032 104.641 497.208C104.423 497.561 104.21 497.909 104.001 498.268C91.2106 520.078 93.7794 546.701 99.8737 570.022C87.2464 555.708 76.9003 536.214 72.4768 517.646C68.2329 500.328 67.8131 482.29 71.246 464.795C73.4041 454.198 77.294 443.766 81.4354 433.79C99.4679 390.372 126.831 340.875 107.931 293.108Z" fill="#B0531D"/>
<path d="M356.532 596.487C358.049 597.273 358.605 598.06 358.914 599.815C361.697 615.567 359.418 631.916 351.216 645.78C342.588 660.362 329.973 671.654 313.412 676.084C311.936 676.255 312.04 676.273 310.64 675.779C311.261 674.323 320.645 668.211 322.714 666.669C347.867 647.919 352.414 625.542 356.532 596.487Z" fill="#6B2D09"/>
<path d="M393.441 567.109C399.617 568.712 401.644 579.821 401.83 585.147C402.301 598.657 398.327 612.672 389.096 622.739C388.323 623.885 387.607 624.787 386.301 624.866C385.22 622.654 390.097 610.131 391.148 606.786C395.799 592.009 394.697 581.984 393.441 567.109Z" fill="#6B2D09"/>
<path d="M145.807 285.031C149.553 276.228 153.671 267.588 158.151 259.136C165.324 245.884 171.558 235.744 177.402 221.754C183.758 206.54 183.333 186.801 190.682 173.85C201.82 154.224 227.256 136.186 248.975 130.558C288.728 120.256 326.848 135.314 360.639 154.316C364.694 153.029 368.968 151.483 373.015 150.258C392.701 144.298 413.809 146.905 431.364 158.996C466.55 183.229 476.728 232.032 479.454 271.953C479.641 274.686 480.142 281.023 479.382 283.037L478.504 283.206L476.357 281.74C470.007 278.438 464.927 276.492 458.084 274.283C428.138 268.371 403.087 281.112 387.557 306.581C385.375 310.159 384.954 308.96 381.799 306.574C380.779 306.338 376.135 304.425 374.89 303.938C365.476 300.816 357.123 303.324 348.608 307.333C347.802 302.963 347.087 299.736 345.707 295.507C338.598 273.631 323.14 255.448 302.697 244.911C282.857 234.683 259.722 232.922 238.562 240.027C214.983 247.909 198.629 263.652 187.67 285.609C173.714 285.535 159.759 285.342 145.807 285.031Z" fill="#F9C8A5"/>
<path d="M458.084 274.283C456.975 272.126 455.385 271.64 453.405 270.532C434.529 259.973 417.362 270.076 399.483 276.359C396.747 277.321 395.132 276.838 393.537 274.45C393.055 271.246 395.297 267.091 397.193 264.606C403.868 255.859 416.161 251.328 426.657 249.858C439.605 247.968 452.77 251.342 463.214 259.225C470.579 264.885 474.832 272.613 476.357 281.74C470.007 278.438 464.927 276.492 458.084 274.283Z" fill="#B0531D"/>
<path d="M374.89 303.938C379.797 294.41 381.589 289.902 390.124 283.239C387 291.29 384.034 298.2 381.799 306.574C380.779 306.338 376.135 304.425 374.89 303.938Z" fill="#935A3B"/>
<path d="M258.038 209.558C279.44 207.228 315.028 219.008 321.845 243.61C322.215 248.705 317.693 248.639 314.706 247.014C293.13 235.277 285.849 226.821 259.664 227.705C242.053 230.454 231.021 236.867 217.054 247.364C214.48 249.298 205.636 256.12 202.956 254.964C201.794 250.999 207.413 241.557 209.801 238.391C221.902 222.338 238.102 212.687 258.038 209.558Z" fill="#B0531D"/>
<path d="M261.392 245.189C304.887 243.312 341.643 277.109 343.418 320.614C345.194 364.118 311.314 400.799 267.811 402.475C224.451 404.138 187.922 370.393 186.152 327.033C184.382 283.672 218.04 247.06 261.392 245.189Z" fill="#F9C8A5"/>
<path d="M246.661 316.116C239.939 285.963 280.444 261.509 300.546 288.673C305.166 295.037 307.146 302.94 306.071 310.731C305.658 361.75 249.87 360.94 246.661 316.116Z" fill="#FEFEFE"/>
<path d="M246.661 316.116C239.939 285.963 280.444 261.509 300.546 288.673C305.166 295.037 307.146 302.94 306.071 310.731C303.744 304.251 302.491 299.798 297.978 294.309C282.722 275.753 258.639 284.523 250.134 304.592C248.458 308.548 247.596 311.836 246.661 316.116Z" fill="#6B2D09"/>
<path d="M270.303 294.824C291.987 294.767 296.349 329.964 274.753 337.571C250.805 338.247 248.664 299.759 270.303 294.824Z" fill="#6B2D09"/>
<path d="M142.867 293.391C156.652 293.703 170.438 293.912 184.227 294.019C180.281 306.206 178.628 317.027 179.526 329.898C181.081 353.64 192.059 375.775 210.016 391.384C226.733 406.027 248.598 413.407 270.772 411.889C293.192 410.147 313.989 399.525 328.55 382.389C344.27 364.135 351.988 340.326 349.967 316.321C358.649 311.146 362.717 310.327 372.612 311.43C375.949 313.066 379.33 314.618 382.432 316.662C381.273 320.508 380.117 323.615 380.185 327.621C380.259 332.01 381.51 341.492 384.258 344.855L385.037 344.774L385.712 341.331C385.684 342.997 385.602 346.699 386.162 348.194C390.776 360.522 400.033 371.626 406.936 382.811C411.925 390.896 414.3 395.327 417.684 404.041C417.934 405.668 418.844 412.566 419.217 413.815C419.455 429.001 416.891 438.879 406.348 450.457C403.581 452.559 400.587 454.93 397.712 456.831C379.363 471.2 338.89 459.823 323.007 444.43C318.575 441.219 314.114 438.044 309.621 434.912C305.948 434.973 302.273 434.93 298.601 434.784C275.236 435.192 247.122 446.24 229.075 460.895C222.323 466.38 215.685 473.576 209.762 479.932C195.331 451.676 206.524 415.777 190.275 386.436C177.316 363.04 146.152 368.1 137.756 351.361C130.259 336.414 137.546 308.693 142.867 293.391Z" fill="#F9C8A5"/>
<path d="M372.612 311.43C375.949 313.066 379.33 314.618 382.432 316.662C381.273 320.508 380.117 323.615 380.184 327.621C380.259 332.01 381.51 341.492 384.258 344.854L385.037 344.774L385.712 341.331C385.684 342.996 385.602 346.699 386.162 348.194C390.776 360.522 400.033 371.626 406.936 382.811C411.925 390.896 414.3 395.327 417.684 404.041C417.934 405.668 418.844 412.566 419.217 413.815C419.455 429.001 416.891 438.879 406.348 450.457C403.581 452.559 400.587 454.93 397.712 456.831C379.363 471.2 338.89 459.823 323.007 444.43C318.575 441.219 314.113 438.044 309.621 434.912C305.948 434.973 302.273 434.93 298.601 434.784C301.712 434.101 307.017 435.161 308.904 433.047L309.2 432.145C314.915 426.971 333.861 441.176 339.793 444.735C343.313 446.849 346.999 448.677 350.813 450.195C380.444 461.742 414.862 447.123 409.698 411.414C407.395 399.946 403.618 394.218 397.407 384.687C380.001 357.971 367.823 345.41 372.612 311.43Z" fill="#935A3B"/>
<path d="M409.698 411.414C414.862 447.124 380.444 461.742 350.813 450.195C346.999 448.677 343.313 446.849 339.793 444.735C333.861 441.176 314.915 426.971 309.2 432.145L308.904 433.047C299.031 425.649 306.17 407.922 320.48 415.923C325.236 418.58 329.194 421.639 333.563 424.449C345.308 431.993 359.7 438.696 373.81 438.976C388.439 439.531 409.746 427.636 409.698 411.414Z" fill="#DC9D71"/>
<path d="M385.712 341.331C386.282 311.242 409.768 282.881 440.58 280.882C454.882 279.98 468.956 284.804 479.699 294.29C487.912 300.97 484.323 302.711 488.534 308.329C489.661 307.907 489.716 307.722 490.624 306.9C492.074 307.786 494.371 311.923 495.394 313.579C499.739 321.315 502.024 329.819 503.053 338.593C499.593 338.556 492.896 338.288 489.661 338.478L482.496 338.889C482.167 341.09 481.786 344.174 481.318 346.285C483.387 346.271 490.276 345.907 491.635 346.901L503.443 347.097C501.847 365.005 497.484 378.395 485.262 392.012C483.183 394.108 478.631 398.416 476.221 399.885C463.506 408.562 448.824 412.267 433.537 409.482C428.016 408.446 422.676 406.612 417.684 404.041C414.3 395.327 411.925 390.896 406.936 382.811C400.033 371.626 390.776 360.522 386.162 348.194C385.602 346.699 385.684 342.997 385.712 341.331Z" fill="#F9C8A5"/>
<path d="M479.699 294.29C487.912 300.97 484.323 302.711 488.534 308.329C489.661 307.907 489.716 307.722 490.624 306.9C492.074 307.786 494.371 311.923 495.394 313.579C499.739 321.315 502.024 329.819 503.053 338.593C499.593 338.556 492.896 338.288 489.661 338.478L482.496 338.889C482.167 341.09 481.786 344.174 481.318 346.285C483.387 346.271 490.276 345.907 491.635 346.901L503.443 347.097C501.847 365.005 497.484 378.395 485.262 392.012C483.183 394.108 478.631 398.416 476.221 399.885C463.657 359.176 476.719 335.382 479.699 294.29Z" fill="#935A3B"/>
<path d="M481.177 346.836C484.664 346.876 488.15 346.898 491.635 346.901L503.443 347.097C501.847 365.005 497.484 378.394 485.262 392.012C478.06 376.994 479.384 362.778 481.177 346.836Z" fill="#FEFEFE"/>
<path d="M495.394 313.579C499.739 321.315 502.024 329.819 503.053 338.593C499.593 338.556 492.896 338.288 489.661 338.478C487.607 338.309 485.56 338.098 483.515 337.845C482.531 335.805 485.725 324.202 486.432 321.217C488.911 318.603 492.531 315.877 495.394 313.579Z" fill="#FEFEFE"/>
<path d="M395.829 335.292C394.433 330.178 397.407 322.784 399.899 318.401C410.941 298.982 438.262 301.873 443.276 324.228C444.44 329.415 444.572 334.775 443.082 339.895C441.132 353.072 435.789 366.776 421.067 369.663C415.699 370.733 410.127 369.548 405.659 366.385C397.718 360.812 394.614 350.423 394.719 341.143C394.745 338.821 394.473 337.191 395.829 335.292Z" fill="#FEFEFE"/>
<path d="M402.322 325.829C425.484 300.165 439.574 356.433 414.083 358.469C403.069 359.348 397.812 346.848 398.529 337.047C398.603 336.059 398.692 335.072 398.797 334.086C399.91 330.27 400.373 329.328 402.322 325.829Z" fill="#6B2D09"/>
<path d="M395.829 335.292C394.433 330.178 397.407 322.784 399.899 318.401C410.941 298.982 438.262 301.873 443.276 324.228C444.44 329.415 444.572 334.775 443.082 339.895C440.543 327.615 435.891 312.158 419.47 312.793C412.165 313.075 405.709 319.437 401.284 324.865L402.322 325.829C400.373 329.328 399.91 330.27 398.797 334.086L396.356 333.777L395.829 335.292Z" fill="#6B2D09"/>
<path d="M401.284 324.865L402.322 325.829C400.373 329.328 399.91 330.27 398.797 334.086L396.356 333.777C398.014 330.386 399.309 328.086 401.284 324.865Z" fill="#D0CFCF"/>
<path d="M209.711 492.309C217.812 483.29 224.637 475.496 234.223 468.025C260.882 447.264 290.078 440.835 323.007 444.43C338.89 459.823 379.363 471.2 397.712 456.831C426.675 464.935 441.244 480.84 456.195 505.24C429.149 487.488 415.252 511.632 384.983 502.997C364.15 497.056 362.02 472.601 356.696 470.712C352.956 471.535 346.76 480.688 343.436 484.015C340.86 486.544 337.978 488.738 334.854 490.548C319.321 499.603 296.527 497.208 281.397 489.268C251.027 473.327 239.51 474.277 209.711 492.309Z" fill="#B0531D"/>
<path d="M261.193 489.42C270.998 494.125 278.978 498.506 289.47 501.626C297.478 518.183 309.464 528.122 325.66 536.104C312.895 549.486 300.282 556.799 282.432 560.163C250.545 566.165 233.047 546.385 245.636 516.068C250.082 505.361 254.419 498.811 261.193 489.42Z" fill="#F9C8A5"/>
<path d="M343.669 495.697C348.126 491.986 350.588 489.408 354.568 485.185C357.302 490.267 359.253 493.875 362.841 498.524C370.36 505.355 376.116 510.005 386.365 512.656C389.284 512.692 392.688 513.57 395.583 514.197C390.582 524.874 385.387 530.504 375.167 536.604L366.507 539.48C359.225 542.277 341.432 542.454 334.502 538.688C331.195 538.073 328.847 537.201 325.66 536.104C309.464 528.122 297.478 518.183 289.47 501.626C291.833 502.223 300.644 503.96 302.085 504.673C318.836 506.958 329.533 504.399 343.669 495.697Z" fill="#FEFEFE"/>
<path d="M289.47 501.626C291.833 502.223 300.644 503.96 302.085 504.673C301.808 506.745 302.701 507.208 303.955 508.908C321.215 532.351 371.26 545.239 386.365 512.656C389.284 512.692 392.688 513.57 395.583 514.197C390.582 524.874 385.387 530.504 375.167 536.604L366.507 539.48C359.225 542.277 341.432 542.454 334.502 538.688C331.195 538.073 328.847 537.201 325.66 536.104C309.464 528.122 297.478 518.183 289.47 501.626Z" fill="#935A3B"/>
<path d="M343.669 495.697C348.126 491.986 350.588 489.408 354.568 485.185C357.302 490.267 359.253 493.875 362.841 498.524C356.635 497.427 349.93 496.574 343.669 495.697Z" fill="#F9C8A5"/>
<path d="M419.217 413.815C441.251 421.627 457.097 419.671 477.343 408.824C477.822 413.955 478.766 418.903 475.156 423.206C472.554 426.307 466.938 428.135 463.043 429.354C444.287 435.228 440.102 451.736 439.769 469.902C428.581 460.572 419.789 455.801 406.348 450.457C416.891 438.879 419.455 429.001 419.217 413.815Z" fill="#F9C8A5"/>
<path d="M395.583 514.197C401.253 514.057 404.881 513.874 410.49 513.125C415.605 521.175 419.353 529.846 417.28 539.505C414.996 550.138 404.364 553.551 394.832 550.79C386.367 548.335 380.674 543.21 375.167 536.604C385.387 530.504 390.582 524.874 395.583 514.197Z" fill="#F9C8A5"/>
<path d="M553.931 210.193C555.917 208.803 560.426 205.925 562.102 204.274C579.443 187.174 602.468 209.405 598.843 229.104C596.991 239.139 588.893 241.84 581.417 248.301C573.8 255.101 563.582 262.295 555.137 268.204L518.743 295.822C514.338 299.161 505.661 305.241 501.774 308.643C501.323 307.34 498.88 303.614 498.015 302.223C494.785 298.018 497.99 291.479 499.446 286.606C501.323 277.187 502.682 267.672 503.517 258.104C504.126 252.664 503.279 246.011 504.455 241.319C504.467 243.377 504.248 245.064 505.156 246.855C507.977 245.381 524.629 232.277 528.187 229.571C535.871 223.467 545.851 215.577 553.931 210.193Z" fill="#DC9D71"/>
<path d="M553.931 210.193C555.917 208.803 560.426 205.925 562.102 204.274C579.442 187.174 602.468 209.405 598.843 229.104C596.991 239.139 588.893 241.84 581.417 248.301L574.672 243.963C563.198 238.702 557.721 230.691 555.539 218.281C555.314 216.222 554.388 212.363 553.931 210.193Z" fill="#EE8B89"/>
<path d="M553.931 210.193C555.917 208.803 560.426 205.925 562.102 204.274C579.442 187.174 602.468 209.405 598.843 229.104C596.991 239.139 588.893 241.84 581.417 248.301L574.672 243.963C576.286 243.059 577.864 242.082 579.388 241.035C584.226 237.782 591.385 233.289 592.275 227.149C593.615 218.217 585.804 206.459 576.725 205.228C570.559 204.392 560.402 214.32 555.539 218.281C555.314 216.222 554.388 212.363 553.931 210.193Z" fill="#A05151"/>
<path d="M569.035 214.006C571.966 218.222 573.215 224.116 577.773 227.569C580.192 229.401 582.983 230.467 585.152 232.47C574.306 232.809 567.89 224.36 569.035 214.006Z" fill="#A05151"/>
<path d="M528.188 229.571C535.871 223.467 545.851 215.577 553.931 210.193C554.388 212.363 555.314 216.222 555.539 218.281C557.721 230.691 563.198 238.702 574.672 243.963L581.417 248.301C573.8 255.101 563.582 262.295 555.137 268.204C553.248 266.714 549.739 265.578 547.381 264.675C543.451 262.766 541.105 260.698 537.906 257.786C532.873 251.992 530.302 245.858 529.181 238.338C529.954 234.966 529.345 232.656 528.188 229.571Z" fill="#646566"/>
<path d="M543.524 227.421C545.145 225.749 547.241 224.215 549.087 222.759C551.14 230.231 553.273 234.826 557.958 240.924C555.753 242.376 553.815 243.668 551.494 244.944C546.863 239.104 545.273 234.464 543.524 227.421Z" fill="#D0CFCF"/>
<path d="M535.42 233.444C536.858 232.101 538.381 231.1 539.984 229.963C541.946 238.492 542.768 241.281 547.673 248.507L542.39 251.773C537.211 245.221 536.626 241.417 535.42 233.444Z" fill="#D0CFCF"/>
<path d="M557.958 240.924L558.421 241.431C560.773 243.968 566.83 247.946 567.567 249.472C561.98 255.952 555.832 249.623 551.494 244.944C553.815 243.668 555.753 242.376 557.958 240.924Z" fill="#B2B1B2"/>
<path d="M547.673 248.507L548.124 249.062C550.634 252.094 556.484 255.903 557.227 257.534C551.871 261.535 546.101 255.892 542.39 251.773L547.673 248.507Z" fill="#B2B1B2"/>
<path d="M528.187 229.571C529.345 232.656 529.954 234.966 529.181 238.338C530.302 245.858 532.873 251.992 537.906 257.786C533.848 260.82 501.061 286.248 499.446 286.606C501.323 277.187 502.682 267.672 503.517 258.104C504.126 252.664 503.279 246.011 504.455 241.319C504.467 243.377 504.248 245.064 505.156 246.855C507.977 245.381 524.629 232.277 528.187 229.571Z" fill="#F9C8A5"/>
<path d="M528.188 229.571C529.345 232.656 529.955 234.966 529.181 238.338C521.138 244.127 511.109 251.81 503.517 258.104C504.126 252.664 503.279 246.011 504.455 241.319C504.467 243.377 504.248 245.064 505.156 246.855C507.977 245.381 524.629 232.277 528.188 229.571Z" fill="#935A3B"/>
<path d="M547.381 264.675C549.739 265.578 553.248 266.714 555.137 268.204L518.743 295.822C514.338 299.161 505.661 305.241 501.774 308.643C501.323 307.34 498.88 303.614 498.014 302.223C502.011 299.714 510.603 292.688 514.667 289.581L547.381 264.675Z" fill="#935A3B"/>
</svg>
